<svg width="64" height="64" viewBox="0 0 64 64" fill="none" xmlns="http://www.w3.org/2000/svg">
  <defs>
    <linearGradient id="bg" x1="8" y1="5" x2="58" y2="61" gradientUnits="userSpaceOnUse"><stop stop-color="#172A40"/><stop offset="1" stop-color="#040812"/></linearGradient>
    <linearGradient id="neon" x1="15" y1="22" x2="50" y2="44" gradientUnits="userSpaceOnUse"><stop stop-color="#D9F99D"/><stop offset="0.55" stop-color="#BEF264"/><stop offset="1" stop-color="#5EEAD4"/></linearGradient>
  </defs>
  <rect width="64" height="64" rx="15" fill="url(#bg)"/>
  <path d="M32 9L52 18V33C52 45 44 54 32 59C20 54 12 45 12 33V18L32 9Z" fill="#0C1929" stroke="url(#neon)" stroke-width="2"/>
  <path d="M10 33H54" stroke="#CBD5E1" stroke-width="3.5" stroke-linecap="round"/>
  <rect x="7" y="25" width="6" height="16" rx="2.5" fill="url(#neon)"/>
  <rect x="51" y="25" width="6" height="16" rx="2.5" fill="url(#neon)"/>
  <path d="M18 36H25L29 25L35 43L39 32H47" stroke="#08111F" stroke-width="5" stroke-linecap="round" stroke-linejoin="round"/>
  <path d="M18 36H25L29 25L35 43L39 32H47" stroke="url(#neon)" stroke-width="2.5" stroke-linecap="round" stroke-linejoin="round"/>
</svg>
